<svg width="70" height="70" viewBox="0 0 70 70" fill="none" xmlns="http://www.w3.org/2000/svg">
<g clip-path="url(#clip0_23_159)">
<path d="M58.8897 47.0783L54.9041 25.1562H56.875C57.1651 25.1562 57.4433 25.041 57.6484 24.8359C57.8535 24.6308 57.9688 24.3526 57.9688 24.0625V23.952C60.4625 23.4434 62.3438 21.2341 62.3438 18.5938C62.3438 15.9534 60.4625 13.7441 57.9688 13.2355V13.125C57.9688 12.8349 57.8535 12.5567 57.6484 12.3516C57.4433 12.1465 57.1651 12.0312 56.875 12.0312H48.125C44.8798 12.0312 42.1848 14.4014 41.6609 17.5H38.2812C37.9912 17.5 37.713 17.6152 37.5079 17.8204C37.3027 18.0255 37.1875 18.3037 37.1875 18.5938C37.1875 18.8838 37.3027 19.162 37.5079 19.3671C37.713 19.5723 37.9912 19.6875 38.2812 19.6875H41.6609C41.8232 20.6392 42.1932 21.5435 42.7447 22.3359C43.2961 23.1284 44.0154 23.7896 44.8514 24.2725L45.8937 51.4062H35V29.5312C35 27.1184 33.0378 25.1562 30.625 25.1562H25.3531C25.063 25.1562 24.7848 25.2715 24.5797 25.4766C24.3746 25.6817 24.2594 25.9599 24.2594 26.25C24.2594 26.5401 24.3746 26.8183 24.5797 27.0234C24.7848 27.2285 25.063 27.3438 25.3531 27.3438H30.625C31.8314 27.3438 32.8125 28.3248 32.8125 29.5312V31.7188H13.125C12.6059 31.7172 12.1041 31.5314 11.7091 31.1945C11.3141 30.8576 11.0515 30.3915 10.9681 29.8791C10.9472 29.7367 10.8982 29.6 10.824 29.4768C10.7498 29.3535 10.6519 29.2463 10.5359 29.1612C10.4199 29.0761 10.2881 29.0149 10.1483 28.9812C10.0084 28.9475 9.86328 28.9419 9.72125 28.9647C9.4347 29.0089 9.17742 29.165 9.00596 29.3989C8.83451 29.6327 8.7629 29.925 8.80688 30.2116C9.01469 31.5722 9.86781 32.7086 11.0195 33.3484C4.53469 36.2556 0 42.758 0 50.3125V59.0625C0 59.3526 0.115234 59.6308 0.320352 59.8359C0.52547 60.041 0.803669 60.1562 1.09375 60.1562H4.42969C4.98094 65.6753 9.65125 70 15.3125 70C20.9738 70 25.6441 65.6753 26.1953 60.1562H45.9922C46.5434 65.6753 51.2137 70 56.875 70C62.5363 70 67.2066 65.6753 67.7578 60.1562H68.9062C69.1963 60.1562 69.4745 60.041 69.6796 59.8359C69.8848 59.6308 70 59.3526 70 59.0625C70 52.7395 65.0934 47.5508 58.8897 47.0783ZM60.1562 18.5938C60.1542 19.2702 59.9429 19.9294 59.5512 20.4808C59.1595 21.0323 58.6067 21.449 57.9688 21.6737V15.5138C59.2386 15.9666 60.1562 17.1697 60.1562 18.5938ZM47.0312 17.5H43.9053C44.3942 15.6187 46.0928 14.2188 48.125 14.2188H55.7812V22.9688H48.125C46.0917 22.9688 44.3953 21.5688 43.9053 19.6875H47.0312C47.3213 19.6875 47.5995 19.5723 47.8046 19.3671C48.0098 19.162 48.125 18.8838 48.125 18.5938C48.125 18.3037 48.0098 18.0255 47.8046 17.8204C47.5995 17.6152 47.3213 17.5 47.0312 17.5ZM2.1875 50.3125C2.1875 41.2661 9.54734 33.9062 18.5938 33.9062H32.8125V51.4062C32.8125 52.6127 33.7936 53.5938 35 53.5938H45.8937C46.4942 53.5938 47.0531 53.3564 47.4688 52.9266C47.8844 52.4945 48.1031 51.9258 48.0802 51.3198L47.0739 25.1562H52.6805L56.8367 48.0091L52.8533 57.9688H29.5312V48.125C29.5312 43.9031 26.0969 40.4688 21.875 40.4688H18.5938C11.4953 40.4688 5.32 44.4697 2.1875 50.3311V50.3125ZM59.955 60.1562C59.5022 61.4261 58.2991 62.3438 56.875 62.3438C55.4509 62.3438 54.2478 61.4261 53.795 60.1562H59.955ZM15.3125 67.8125C10.8588 67.8125 7.17938 64.4656 6.63906 60.1562H9.95312C10.4617 62.65 12.6711 64.5312 15.3114 64.5312C17.9517 64.5312 20.1611 62.65 20.6697 60.1562H23.9859C23.4445 64.4656 19.7641 67.8125 15.3114 67.8125H15.3125ZM12.2325 60.1562H18.3925C17.9397 61.4261 16.7366 62.3438 15.3125 62.3438C13.8884 62.3438 12.6853 61.4261 12.2325 60.1562ZM2.22469 57.9688C2.78906 49.4309 9.91375 42.6562 18.5938 42.6562H21.875C24.8905 42.6562 27.3438 45.1095 27.3438 48.125V57.9688H2.22469ZM56.875 67.8125C52.4212 67.8125 48.7419 64.4656 48.2016 60.1562H51.5156C52.0242 62.65 54.2336 64.5312 56.8739 64.5312C59.5142 64.5312 61.7236 62.65 62.2322 60.1562H65.5484C65.007 64.4656 61.3277 67.8125 56.875 67.8125ZM55.2092 57.9688L58.6983 49.245C63.4233 49.5939 67.2328 53.2919 67.7513 57.9688H55.2092Z" fill="#52C923"/>
<path d="M14.2188 28.4375C22.0588 28.4375 28.4375 22.0588 28.4375 14.2188C28.4375 6.37875 22.0588 0 14.2188 0C6.37875 0 0 6.37875 0 14.2188C0 22.0588 6.37875 28.4375 14.2188 28.4375ZM14.2188 2.1875C20.8523 2.1875 26.25 7.58516 26.25 14.2188C26.25 20.8523 20.8523 26.25 14.2188 26.25C7.58516 26.25 2.1875 20.8523 2.1875 14.2188C2.1875 7.58516 7.58516 2.1875 14.2188 2.1875Z" fill="#52C923"/>
<path d="M8.26113 15.1977L12.0313 17.0822V22.9688C12.0313 23.1983 12.1035 23.4221 12.2377 23.6083C12.372 23.7945 12.5614 23.9338 12.7792 24.0064C12.9969 24.079 13.232 24.0812 13.4512 24.0127C13.6703 23.9443 13.8623 23.8086 14 23.625L20.5625 14.875C20.6588 14.7468 20.7256 14.599 20.7584 14.4421C20.7912 14.2852 20.7891 14.123 20.7523 13.967C20.7155 13.811 20.6448 13.665 20.5453 13.5394C20.4458 13.4137 20.3198 13.3115 20.1764 13.2398L16.4063 11.3553V5.46875C16.4063 5.23919 16.3341 5.01545 16.1998 4.82922C16.0656 4.643 15.8762 4.50372 15.6584 4.43113C15.4406 4.35853 15.2055 4.3563 14.9864 4.42475C14.7673 4.4932 14.5753 4.62885 14.4375 4.8125L7.87503 13.5625C7.7788 13.6907 7.71193 13.8385 7.67914 13.9954C7.64635 14.1523 7.64844 14.3145 7.68528 14.4705C7.72211 14.6265 7.79279 14.7725 7.8923 14.8981C7.99181 15.0238 8.11772 15.126 8.26113 15.1977ZM14.2188 8.75V12.0312C14.2187 12.2345 14.2752 12.4338 14.3821 12.6067C14.4889 12.7796 14.6418 12.9193 14.8236 13.0102L18.0261 14.6103L14.2188 19.6875V16.4062C14.2189 16.203 14.1623 16.0037 14.0555 15.8308C13.9487 15.6579 13.7958 15.5182 13.6139 15.4273L10.4125 13.8272L14.2188 8.75ZM65.625 19.6875H68.9063C69.1964 19.6875 69.4746 19.5723 69.6797 19.3671C69.8848 19.162 70 18.8838 70 18.5938C70 18.3037 69.8848 18.0255 69.6797 17.8204C69.4746 17.6152 69.1964 17.5 68.9063 17.5H65.625C65.335 17.5 65.0568 17.6152 64.8516 17.8204C64.6465 18.0255 64.5313 18.3037 64.5313 18.5938C64.5313 18.8838 64.6465 19.162 64.8516 19.3671C65.0568 19.5723 65.335 19.6875 65.625 19.6875ZM65.625 15.3125C65.7687 15.3126 65.9109 15.2844 66.0436 15.2294C66.1764 15.1744 66.2969 15.0937 66.3983 14.992L68.5858 12.8045C68.6903 12.7036 68.7736 12.5829 68.8309 12.4495C68.8883 12.3161 68.9184 12.1725 68.9197 12.0273C68.9209 11.8821 68.8933 11.7381 68.8383 11.6036C68.7833 11.4692 68.7021 11.3471 68.5994 11.2444C68.4967 11.1417 68.3746 11.0605 68.2401 11.0055C68.1057 10.9505 67.9617 10.9228 67.8165 10.9241C67.6712 10.9254 67.5277 10.9555 67.3943 11.0129C67.2608 11.0702 67.1401 11.1535 67.0393 11.258L64.8518 13.4455C64.6988 13.5984 64.5947 13.7933 64.5525 14.0054C64.5103 14.2176 64.532 14.4375 64.6148 14.6373C64.6975 14.8371 64.8377 15.0079 65.0175 15.1281C65.1973 15.2483 65.4087 15.3125 65.625 15.3125ZM67.0393 25.9295C67.1406 26.0315 67.2611 26.1123 67.3938 26.1675C67.5265 26.2227 67.6688 26.2511 67.8125 26.2511C67.9563 26.2511 68.0986 26.2227 68.2313 26.1675C68.364 26.1123 68.4845 26.0315 68.5858 25.9295C68.7909 25.7244 68.9061 25.4463 68.9061 25.1562C68.9061 24.8662 68.7909 24.5881 68.5858 24.383L66.3983 22.1955C66.2974 22.091 66.1767 22.0077 66.0433 21.9504C65.9098 21.893 65.7663 21.8629 65.6211 21.8616C65.4759 21.8603 65.3318 21.888 65.1974 21.943C65.063 21.998 64.9409 22.0792 64.8382 22.1819C64.7355 22.2846 64.6543 22.4067 64.5993 22.5411C64.5443 22.6756 64.5166 22.8196 64.5179 22.9648C64.5191 23.11 64.5493 23.2536 64.6066 23.387C64.664 23.5204 64.7473 23.6411 64.8518 23.742L67.0393 25.9295ZM21.875 47.0312H13.125C12.835 47.0312 12.5568 47.1465 12.3516 47.3516C12.1465 47.5567 12.0313 47.8349 12.0313 48.125C12.0313 48.4151 12.1465 48.6933 12.3516 48.8984C12.5568 49.1035 12.835 49.2188 13.125 49.2188H21.875C22.1651 49.2188 22.4433 49.1035 22.6484 48.8984C22.8536 48.6933 22.9688 48.4151 22.9688 48.125C22.9688 47.8349 22.8536 47.5567 22.6484 47.3516C22.4433 47.1465 22.1651 47.0312 21.875 47.0312ZM21.875 52.5H9.84378C9.5537 52.5 9.2755 52.6152 9.07039 52.8204C8.86527 53.0255 8.75003 53.3037 8.75003 53.5938C8.75003 53.8838 8.86527 54.162 9.07039 54.3671C9.2755 54.5723 9.5537 54.6875 9.84378 54.6875H21.875C22.1651 54.6875 22.4433 54.5723 22.6484 54.3671C22.8536 54.162 22.9688 53.8838 22.9688 53.5938C22.9688 53.3037 22.8536 53.0255 22.6484 52.8204C22.4433 52.6152 22.1651 52.5 21.875 52.5Z" fill="#52C923"/>
</g>
<defs>
<clipPath id="clip0_23_159">
<rect width="70" height="70" fill="white"/>
</clipPath>
</defs>
</svg>
