<svg width="70" height="71" viewBox="0 0 70 71" fill="none" xmlns="http://www.w3.org/2000/svg">
<path d="M47.6618 38.3824C47.6618 37.7647 47.25 37.353 46.6324 37.353H43.3382V33.6471H46.6324C47.25 33.6471 47.6618 33.2353 47.6618 32.6177C47.6618 32 47.25 31.5883 46.6324 31.5883H43.3382V30.1471C43.3382 28.5 42 27.2647 40.4559 27.2647H39.0147V23.9706C39.0147 23.353 38.603 22.9412 37.9853 22.9412C37.3677 22.9412 36.9559 23.353 36.9559 23.9706V27.2647H33.25V23.9706C33.25 23.353 32.8382 22.9412 32.2206 22.9412C31.603 22.9412 31.1912 23.353 31.1912 23.9706V27.2647H29.75C28.103 27.2647 26.8677 28.603 26.8677 30.1471V31.5883H23.5735C22.9559 31.5883 22.5441 32 22.5441 32.6177C22.5441 33.2353 22.9559 33.6471 23.5735 33.6471H26.8677V37.353H23.5735C22.9559 37.353 22.5441 37.7647 22.5441 38.3824C22.5441 39 22.9559 39.4118 23.5735 39.4118H26.8677V40.853C26.8677 42.5 28.2059 43.7353 29.75 43.7353H31.1912V47.0294C31.1912 47.6471 31.603 48.0588 32.2206 48.0588C32.8382 48.0588 33.25 47.6471 33.25 47.0294V43.7353H36.9559V47.0294C36.9559 47.6471 37.3677 48.0588 37.9853 48.0588C38.603 48.0588 39.0147 47.6471 39.0147 47.0294V43.7353H40.4559C42.103 43.7353 43.3382 42.3971 43.3382 40.853V39.4118H46.6324C47.1471 39.4118 47.6618 39 47.6618 38.3824ZM41.2794 40.853C41.2794 41.3677 40.8677 41.6765 40.4559 41.6765H29.6471C29.1324 41.6765 28.8235 41.2647 28.8235 40.853V30.1471C28.8235 29.6324 29.2353 29.3235 29.6471 29.3235H40.353C40.8677 29.3235 41.1765 29.7353 41.1765 30.1471V40.853H41.2794ZM42.2059 24.1765C42.8235 24.1765 43.2353 23.7647 43.2353 23.1471V19.2353L48.3824 16.8677C48.6912 16.6618 49 16.353 49 15.9412V10.1765C50.6471 9.76472 51.8824 8.2206 51.8824 6.4706C51.8824 4.30884 50.1324 2.55884 47.9706 2.55884C45.8088 2.55884 44.0588 4.30884 44.0588 6.4706C44.0588 8.2206 45.2941 9.76472 46.9412 10.1765V15.3235L41.7941 17.6912C41.4853 17.8971 41.1765 18.2059 41.1765 18.6177V23.1471C41.1765 23.7647 41.5882 24.1765 42.2059 24.1765ZM46.0147 6.4706C46.0147 5.44119 46.8382 4.61766 47.8677 4.61766C48.8971 4.61766 49.7206 5.44119 49.7206 6.4706C49.7206 7.50001 48.8971 8.32354 47.8677 8.32354C46.8382 8.32354 46.0147 7.39707 46.0147 6.4706ZM23.6765 28.2941C23.6765 27.6765 23.2647 27.2647 22.6471 27.2647H18.7353L16.3677 22.1177C16.1618 21.8088 15.853 21.5 15.4412 21.5H9.67648C9.26472 19.853 7.7206 18.6177 5.9706 18.6177C3.80884 18.6177 2.05884 20.3677 2.05884 22.5294C2.05884 24.6912 3.80884 26.4412 5.9706 26.4412C7.7206 26.4412 9.26472 25.2059 9.67648 23.5588H14.8235L17.1912 28.7059C17.3971 29.0147 17.7059 29.3235 18.1177 29.3235H22.6471C23.2647 29.3235 23.6765 28.9118 23.6765 28.2941ZM5.9706 24.4853C4.94119 24.4853 4.11766 23.6618 4.11766 22.6324C4.11766 21.603 4.94119 20.7794 5.9706 20.7794C7.00001 20.7794 7.82354 21.603 7.82354 22.6324C7.82354 23.6618 6.89707 24.4853 5.9706 24.4853ZM27.7941 46.8235C27.1765 46.8235 26.7647 47.2353 26.7647 47.853V51.7647L21.6177 54.1324C21.3088 54.3382 21 54.6471 21 55.0588V60.8235C19.353 61.2353 18.1177 62.7794 18.1177 64.5294C18.1177 66.6912 19.8677 68.4412 22.0294 68.4412C24.1912 68.4412 25.9412 66.6912 25.9412 64.5294C25.9412 62.7794 24.7059 61.2353 23.0588 60.8235V55.6765L28.2059 53.3088C28.5147 53.103 28.8235 52.7941 28.8235 52.3824V47.853C28.8235 47.2353 28.4118 46.8235 27.7941 46.8235ZM23.9853 64.5294C23.9853 65.5588 23.1618 66.3824 22.1324 66.3824C21.103 66.3824 20.2794 65.5588 20.2794 64.5294C20.2794 63.5 21.103 62.6765 22.1324 62.6765C23.1618 62.6765 23.9853 63.603 23.9853 64.5294ZM64.0294 44.4559C62.2794 44.4559 60.7353 45.6912 60.3235 47.3382H55.1765L52.8088 42.1912C52.603 41.8824 52.2941 41.5735 51.8824 41.5735H47.353C46.7353 41.5735 46.3235 41.9853 46.3235 42.603C46.3235 43.2206 46.7353 43.6324 47.353 43.6324H51.2647L53.6324 48.7794C53.8382 49.0883 54.1471 49.3971 54.5588 49.3971H60.3235C60.7353 51.0441 62.2794 52.2794 64.0294 52.2794C66.1912 52.2794 67.9412 50.5294 67.9412 48.3677C67.9412 46.2059 66.1912 44.4559 64.0294 44.4559ZM64.0294 50.2206C63 50.2206 62.1765 49.3971 62.1765 48.3677C62.1765 47.3382 63 46.5147 64.0294 46.5147C65.0588 46.5147 65.8824 47.3382 65.8824 48.3677C65.8824 49.3971 65.0588 50.2206 64.0294 50.2206Z" fill="#52C923"/>
</svg>
