<svg width="70" height="70" viewBox="0 0 70 70" fill="none" xmlns="http://www.w3.org/2000/svg">
<mask id="mask0_23_183" style="mask-type:luminance" maskUnits="userSpaceOnUse" x="0" y="0" width="70" height="70">
<path d="M0 0H70V70H0V0Z" fill="white"/>
</mask>
<g mask="url(#mask0_23_183)">
<path fill-rule="evenodd" clip-rule="evenodd" d="M34.532 68.3418C34.832 68.4632 35.168 68.4632 35.468 68.3418C52.2442 61.5512 63.2089 45.3687 63.2089 27.3994V13.9001C63.2089 13.4037 62.9076 12.9562 62.4454 12.7658L35.4749 1.66107C35.1708 1.5359 34.8291 1.5359 34.5251 1.66107L7.55458 12.7658C7.09231 12.9562 6.79102 13.4037 6.79102 13.9001V27.3994C6.79102 45.3687 17.7556 61.5512 34.532 68.3418ZM35 65.875C19.4199 59.3521 9.26791 44.2029 9.26791 27.3994V14.72L35 4.12514L60.732 14.72V27.3994C60.732 44.2029 50.5799 59.3521 35 65.875Z" fill="#52C923"/>
<path fill-rule="evenodd" clip-rule="evenodd" d="M31.0683 41.4296C31.5536 41.9115 32.3406 41.9115 32.826 41.4296L46.6509 27.7036C47.1363 27.2217 47.1363 26.4404 46.6509 25.9584C46.1655 25.4765 45.3785 25.4765 44.8932 25.9584L31.9471 38.8118L25.1069 32.0204C24.6215 31.5385 23.8345 31.5385 23.3492 32.0204C22.8638 32.5024 22.8638 33.2837 23.3492 33.7656L31.0683 41.4296Z" fill="#52C923"/>
</g>
</svg>
