<svg width="70" height="71" viewBox="0 0 70 71" fill="none" xmlns="http://www.w3.org/2000/svg">
<path d="M53.5938 2.6875H7.65625C6.49628 2.68866 5.38416 3.14997 4.56394 3.97019C3.74372 4.79041 3.28241 5.90253 3.28125 7.0625V39.875C3.28241 41.035 3.74372 42.1471 4.56394 42.9673C5.38416 43.7875 6.49628 44.2488 7.65625 44.25H23.5648C23.1838 46.7142 23.4694 49.2355 24.3918 51.5522C25.3142 53.8688 26.8399 55.8963 28.8105 57.4242C29.1178 57.7222 29.3451 58.0929 29.471 58.5021C29.597 58.9112 29.6177 59.3456 29.5312 59.7648C28.8934 59.9895 28.3408 60.406 27.9491 60.9573C27.5574 61.5086 27.346 62.1675 27.3438 62.8438V65.0312C27.3446 65.9012 27.6906 66.7353 28.3058 67.3505C28.9209 67.9656 29.755 68.3116 30.625 68.3125H45.9375C46.8075 68.3116 47.6416 67.9656 48.2567 67.3505C48.8719 66.7353 49.2179 65.9012 49.2188 65.0312V62.8438C49.2174 62.1834 49.0167 61.5388 48.643 60.9943C48.2693 60.4499 47.7399 60.0309 47.1242 59.7922C47.5497 57.6758 49.42 55.8777 50.5991 54.9316C53.69 52.5472 53.7764 47.2775 53.818 44.227C54.9356 44.1713 55.9892 43.6888 56.7615 42.879C57.5338 42.0693 57.9659 40.994 57.9688 39.875V7.0625C57.9676 5.90253 57.5063 4.79041 56.6861 3.97019C55.8658 3.14997 54.7537 2.68866 53.5938 2.6875ZM47.0312 65.0312C47.0312 65.3213 46.916 65.5995 46.7109 65.8046C46.5058 66.0098 46.2276 66.125 45.9375 66.125H30.625C30.3349 66.125 30.0567 66.0098 29.8516 65.8046C29.6465 65.5995 29.5312 65.3213 29.5312 65.0312V62.8438C29.5312 62.5537 29.6465 62.2755 29.8516 62.0704C30.0567 61.8652 30.3349 61.75 30.625 61.75H45.9375C46.2276 61.75 46.5058 61.8652 46.7109 62.0704C46.916 62.2755 47.0312 62.5537 47.0312 62.8438V65.0312ZM50.8878 50.6397C50.631 51.6624 50.0458 52.5726 49.222 53.2308C47.7662 54.4011 45.4333 56.6794 44.9378 59.5625H31.7188C31.8045 58.8427 31.7079 58.1128 31.4378 57.4401C31.1677 56.7673 30.7329 56.1733 30.1733 55.7125C27.5187 53.5775 22.4098 47.8047 28.2658 38.1436C28.4397 39.1827 28.1083 40.8955 29.5302 40.9688C29.6841 40.9686 29.8363 40.936 29.9768 40.8731C30.1173 40.8102 30.2429 40.7183 30.3455 40.6036C30.4481 40.4888 30.5254 40.3537 30.5722 40.207C30.619 40.0604 30.6344 39.9055 30.6173 39.7525C29.9494 32.7562 29.8913 25.7151 30.4434 18.7088C30.4567 18.0894 30.7121 17.4999 31.1549 17.0666C31.5976 16.6332 32.1925 16.3906 32.812 16.3906C33.4315 16.3906 34.0263 16.6332 34.469 17.0666C34.9118 17.4999 35.1672 18.0894 35.1805 18.7088C35.6201 24.2745 35.6804 29.8637 35.3609 35.4377C35.3544 35.6342 35.4003 35.8289 35.4939 36.0019C35.5876 36.1748 35.7255 36.3197 35.8936 36.4217C36.0618 36.5237 36.254 36.5791 36.4507 36.5823C36.6473 36.5854 36.8412 36.5361 37.0125 36.4395C39.888 34.7311 41.3131 36.6266 41.7812 37.2489C41.9489 37.4728 42.1959 37.624 42.4715 37.6714C42.7472 37.7188 43.0305 37.6588 43.2633 37.5037C43.5687 37.2786 43.9177 37.1197 44.2881 37.0373C44.6585 36.9548 45.042 36.9507 45.414 37.0252C45.7861 37.0996 46.1385 37.251 46.4486 37.4696C46.7588 37.6882 47.0198 37.9692 47.215 38.2945C47.3153 38.4409 47.4489 38.5613 47.6048 38.646C47.7607 38.7306 47.9345 38.777 48.1119 38.7812C48.5702 38.8267 49.0137 38.9693 49.4127 39.1993C49.8117 39.4294 50.1572 39.7417 50.4263 40.1156C51.4522 41.45 52.3666 44.3583 50.8878 50.6397ZM55.7812 39.875C55.7808 40.1637 55.7233 40.4495 55.6121 40.7159C55.5008 40.9823 55.338 41.2241 55.133 41.4274C54.928 41.6307 54.6848 41.7915 54.4175 41.9005C54.1501 42.0095 53.8639 42.0645 53.5752 42.0625C53.1902 39.35 50.8769 36.877 48.7287 36.6583C48.0705 35.7942 47.1365 35.1813 46.0818 34.9212C45.0271 34.6612 43.9153 34.7697 42.9308 35.2288C42.2795 34.5034 41.4318 33.9825 40.4905 33.7292C39.5492 33.4758 38.5546 33.5009 37.6272 33.8014C37.8547 28.7013 37.7648 23.592 37.3581 18.5031C37.3168 17.8209 37.1245 17.1564 36.7952 16.5576C36.4658 15.9587 36.0076 15.4405 35.4536 15.0402C34.8997 14.6399 34.2637 14.3677 33.5917 14.2431C32.9197 14.1184 32.2285 14.1445 31.5678 14.3195C30.6645 14.6109 29.8683 15.1642 29.2801 15.9091C28.692 16.654 28.3385 17.5569 28.2647 18.5031C27.8439 23.8509 27.7668 29.2203 28.0339 34.578C26.2957 36.8283 24.9558 39.3597 24.0723 42.0625H7.65625C7.07636 42.0616 6.52046 41.8309 6.11041 41.4208C5.70036 41.0108 5.46962 40.4549 5.46875 39.875V7.0625C5.46962 6.48261 5.70036 5.92671 6.11041 5.51666C6.52046 5.10661 7.07636 4.87587 7.65625 4.875H53.5938C54.1736 4.87587 54.7295 5.10661 55.1396 5.51666C55.5496 5.92671 55.7804 6.48261 55.7812 7.0625V39.875Z" fill="#52C923"/>
<path d="M27.6522 10.9475C26.6758 11.6571 25.8578 12.5622 25.2503 13.6052C24.6429 14.6483 24.2592 15.8063 24.1238 17.0058C24.108 17.1485 24.1206 17.293 24.1607 17.4309C24.2008 17.5688 24.2677 17.6975 24.3575 17.8096C24.5389 18.0359 24.8029 18.1809 25.0912 18.2127C25.3795 18.2445 25.6687 18.1604 25.895 17.979C26.0071 17.8891 26.1004 17.7781 26.1696 17.6522C26.2387 17.5263 26.2824 17.3881 26.2981 17.2453C26.3995 16.3484 26.6867 15.4824 27.1413 14.7026C27.5958 13.9228 28.2079 13.2462 28.9385 12.7161C29.1652 12.5426 29.3152 12.2874 29.3563 12.0048C29.3974 11.7223 29.3264 11.4349 29.1585 11.204C28.9906 10.9731 28.739 10.817 28.4576 10.7691C28.1761 10.7212 27.8871 10.7852 27.6522 10.9475ZM26.0531 9.39763C26.2809 9.21793 26.4279 8.95513 26.4618 8.66704C26.4958 8.37895 26.4139 8.08917 26.2342 7.86146C26.0545 7.63375 25.7917 7.48675 25.5036 7.4528C25.2155 7.41886 24.9257 7.50074 24.698 7.68045C22.3541 9.52615 20.7085 12.1149 20.0321 15.0206C19.9999 15.1606 19.9956 15.3057 20.0195 15.4473C20.0433 15.589 20.0949 15.7246 20.1712 15.8464C20.2474 15.9682 20.3469 16.0738 20.464 16.1571C20.5811 16.2404 20.7134 16.2998 20.8535 16.332C20.9935 16.3642 21.1385 16.3685 21.2802 16.3446C21.4219 16.3207 21.5575 16.2692 21.6793 16.1929C21.8011 16.1166 21.9066 16.0171 21.9899 15.9C22.0733 15.783 22.1327 15.6506 22.1649 15.5106C22.7284 13.0901 24.0993 10.9338 26.0521 9.39654L26.0531 9.39763ZM65.625 10.3437H62.3438C62.0537 10.3437 61.7755 10.459 61.5704 10.6641C61.3653 10.8692 61.25 11.1474 61.25 11.4375C61.25 11.7276 61.3653 12.0058 61.5704 12.2109C61.7755 12.416 62.0537 12.5312 62.3438 12.5312H65.625C65.9151 12.5312 66.1933 12.416 66.3984 12.2109C66.6035 12.0058 66.7188 11.7276 66.7188 11.4375C66.7188 11.1474 66.6035 10.8692 66.3984 10.6641C66.1933 10.459 65.9151 10.3437 65.625 10.3437ZM61.1844 9.38232C61.3279 9.38233 61.4699 9.35402 61.6024 9.29903C61.7349 9.24404 61.8553 9.16344 61.9566 9.06185L64.2775 6.74201C64.4826 6.53678 64.5978 6.25848 64.5977 5.96834C64.5976 5.6782 64.4822 5.39999 64.277 5.1949C64.0717 4.98981 63.7934 4.87465 63.5033 4.87476C63.2132 4.87486 62.935 4.99021 62.7299 5.19545L60.4111 7.51529C60.2619 7.66955 60.161 7.86405 60.1208 8.07488C60.0806 8.28572 60.1029 8.5037 60.1849 8.70204C60.267 8.90037 60.4052 9.07042 60.5825 9.19128C60.7599 9.31213 60.9698 9.37854 61.1844 9.38232ZM61.9566 13.8131C61.7503 13.6139 61.474 13.5036 61.1872 13.5061C60.9005 13.5086 60.6261 13.6236 60.4233 13.8264C60.2206 14.0292 60.1055 14.3035 60.103 14.5903C60.1005 14.8771 60.2108 15.1534 60.41 15.3597L62.731 17.6795C62.8319 17.784 62.9525 17.8673 63.086 17.9246C63.2194 17.9819 63.3629 18.0121 63.5082 18.0134C63.6534 18.0146 63.7974 17.987 63.9318 17.932C64.0663 17.877 64.1884 17.7958 64.2911 17.6931C64.3938 17.5904 64.475 17.4683 64.53 17.3338C64.585 17.1994 64.6127 17.0554 64.6114 16.9102C64.6101 16.7649 64.58 16.6214 64.5226 16.488C64.4653 16.3545 64.382 16.2338 64.2775 16.1329L61.9566 13.8131Z" fill="#52C923"/>
</svg>
