<svg width="70" height="71" viewBox="0 0 70 71" fill="none" xmlns="http://www.w3.org/2000/svg">
<g clip-path="url(#clip0_23_146)">
<mask id="mask0_23_146" style="mask-type:luminance" maskUnits="userSpaceOnUse" x="0" y="0" width="70" height="71">
<path d="M69.9659 0.5H0V70.4659H69.9659V0.5Z" fill="white"/>
</mask>
<g mask="url(#mask0_23_146)">
<path d="M45.1682 6.65991H22.7451C20.6723 6.65991 18.9861 8.34617 18.9861 10.4189V18.7445C18.9861 20.8172 20.6723 22.5035 22.7451 22.5035H45.1682C47.241 22.5035 48.9272 20.8172 48.9272 18.7445V18.5182H49.6233C50.9424 18.5182 52.0153 17.4452 52.0153 16.1262V13.0372C52.0153 11.7182 50.9424 10.6452 49.6233 10.6452H48.9272V10.4189C48.9272 8.34617 47.241 6.65991 45.1682 6.65991ZM40.3705 20.4532H22.7451C21.803 20.4532 21.0364 19.6867 21.0364 18.7445V10.4189C21.0364 9.47676 21.803 8.71023 22.7451 8.71023H40.3705V20.4532ZM46.8769 18.7445C46.8769 19.6867 46.1104 20.4532 45.1682 20.4532H42.4208V8.71023H45.1682C46.1104 8.71023 46.8769 9.47676 46.8769 10.4189V18.7445ZM49.6233 12.6956C49.8118 12.6956 49.9649 12.8487 49.9649 13.0372V16.1268C49.9649 16.3152 49.8118 16.4684 49.6233 16.4684H48.9272V12.6956H49.6233Z" fill="#52C923"/>
<path d="M59.552 0.5H10.644C8.94811 0.5 7.56824 1.87986 7.56824 3.5752V25.2436C7.56824 26.9394 8.94811 28.3188 10.644 28.3188H20.0163C20.5822 28.3188 21.0412 27.8603 21.0412 27.2939C21.0412 26.7276 20.5822 26.2685 20.0163 26.2685H10.644C10.0787 26.2685 9.61855 25.8088 9.61855 25.2436V3.5752C9.61855 3.0099 10.0787 2.55031 10.644 2.55031H59.552C60.1172 2.55031 60.5774 3.0099 60.5774 3.5752V25.2436C60.5774 25.8088 60.1172 26.2685 59.552 26.2685H56.5227C56.2131 26.2685 55.9206 26.4083 55.7258 26.6485L50.1865 33.4923C50.0568 33.653 49.7936 33.5591 49.7936 33.3536V27.2939C49.7936 26.7276 49.3351 26.2685 48.7687 26.2685H24.117C23.5507 26.2685 23.0915 26.7276 23.0915 27.2939C23.0915 27.8598 23.5507 28.3188 24.117 28.3188H47.7438V33.3536C47.7438 34.3288 48.3374 35.169 49.2566 35.4946C50.1624 35.8148 51.1757 35.5288 51.7799 34.7825L57.0116 28.3188H59.552C61.2479 28.3188 62.6272 26.9389 62.6272 25.2436V3.5752C62.6272 1.87986 61.2479 0.5 59.552 0.5Z" fill="#52C923"/>
<path d="M62.5647 54.4374C62.5647 51.39 60.0852 48.9105 57.0378 48.9105C55.501 48.9105 54.1099 49.5409 53.1069 50.5562C52.966 50.3181 52.801 50.0928 52.6132 49.8842C51.9304 49.1299 50.9963 48.6533 49.9954 48.5353C50.1769 47.5867 50.2709 46.62 50.2709 45.6469C50.2709 37.2124 43.4083 30.3499 34.9739 30.3499C26.5393 30.3499 19.6769 37.2118 19.6769 45.6469C19.6769 46.62 19.7709 47.5867 19.9523 48.5347C18.9515 48.6533 18.0168 49.1299 17.3346 49.8842C17.1531 50.0848 16.994 50.3016 16.8563 50.53C15.8522 49.503 14.4526 48.8641 12.9061 48.8641C9.85875 48.8641 7.37927 51.3436 7.37927 54.391C7.37927 56.3794 8.43512 58.1254 10.0152 59.0997C9.31748 59.8229 8.88671 60.8056 8.88671 61.8877V69.3939C8.88671 69.9602 9.34578 70.4193 9.91213 70.4193H15.9008C16.4671 70.4193 16.9262 69.9602 16.9262 69.3939V61.8877C16.9262 60.8056 16.4954 59.8229 15.7978 59.0997C16.1597 58.8759 16.4944 58.6128 16.7954 58.3144L17.9233 69.5433C17.9762 70.067 18.4166 70.4657 18.9435 70.4657H30.5028C31.0691 70.4657 31.5277 70.0066 31.5277 69.4408C31.5277 68.8744 31.0691 68.4154 30.5028 68.4154H27.6187V61.1548H42.329V68.4154H34.6034C34.037 68.4154 33.578 68.8744 33.578 69.4408C33.578 70.0066 34.037 70.4657 34.6034 70.4657H51.0043C51.5306 70.4657 51.9715 70.067 52.0244 69.5428L53.1474 58.3598C53.4486 58.6581 53.7838 58.9218 54.1462 59.1455C53.4485 59.8688 53.0178 60.852 53.0178 61.9341V69.4408C53.0178 70.0066 53.4768 70.4657 54.0432 70.4657H60.0318C60.5982 70.4657 61.0572 70.0066 61.0572 69.4408V61.9341C61.0572 60.852 60.6265 59.8694 59.9288 59.1461C61.5089 58.1718 62.5647 56.4258 62.5647 54.4374ZM14.8759 68.369H10.937V61.8877C10.937 60.8019 11.8205 59.9185 12.9061 59.9185C13.9924 59.9185 14.8759 60.8019 14.8759 61.8877V68.369ZM12.9061 57.8682C10.9893 57.8682 9.42959 56.3084 9.42959 54.391C9.42959 52.4742 10.9893 50.9139 12.9061 50.9139C14.7035 50.9139 16.1864 52.2847 16.3652 54.035L16.3658 54.0371C16.3774 54.1534 16.3833 54.2714 16.3833 54.391C16.3833 56.3084 14.8236 57.8682 12.9061 57.8682ZM51.6347 52.9092L50.0771 68.4154H44.3788V60.1299C44.3788 59.5635 43.9202 59.1044 43.3539 59.1044H26.5932C26.0274 59.1044 25.5684 59.5635 25.5684 60.1299V68.4154H19.8706L18.3131 52.9086C18.1881 51.6654 19.1922 50.5552 20.4418 50.5552H39.445C40.0113 50.5552 40.4699 50.0961 40.4699 49.5303C40.4699 48.9639 40.0113 48.5049 39.445 48.5049H22.0378C21.8328 47.5702 21.7272 46.6125 21.7272 45.6469C21.7272 38.3425 27.6694 32.4002 34.9739 32.4002C42.2778 32.4002 48.22 38.3425 48.22 45.6469C48.22 46.6125 48.1148 47.5702 47.9093 48.5049H43.545C42.9792 48.5049 42.5201 48.9639 42.5201 49.5303C42.5201 50.0961 42.9792 50.5552 43.545 50.5552H49.5054C50.755 50.5552 51.7596 51.6654 51.6347 52.9092ZM59.0069 68.4154H55.0681V61.9341C55.0681 60.8483 55.9515 59.9649 57.0378 59.9649C58.1235 59.9649 59.0069 60.8483 59.0069 61.9341V68.4154ZM57.0378 57.9146C55.1203 57.9146 53.5607 56.3548 53.5607 54.4374C53.5607 52.5206 55.1203 50.9608 57.0378 50.9608C58.9547 50.9608 60.5143 52.5206 60.5143 54.4374C60.5143 56.3548 58.9547 57.9146 57.0378 57.9146Z" fill="#52C923"/>
<path d="M30.5028 39.8152C29.526 39.8152 28.7317 40.6095 28.7317 41.5864C28.7317 42.5627 29.526 43.3575 30.5028 43.3575C31.4796 43.3575 32.2739 42.5627 32.2739 41.5864C32.2739 40.6095 31.4796 39.8152 30.5028 39.8152Z" fill="#52C923"/>
<path d="M39.4449 39.8152C38.468 39.8152 37.6738 40.6095 37.6738 41.5864C37.6738 42.5627 38.468 43.3575 39.4449 43.3575C40.4213 43.3575 41.2161 42.5627 41.2161 41.5864C41.2161 40.6095 40.4213 39.8152 39.4449 39.8152Z" fill="#52C923"/>
</g>
</g>
<defs>
<clipPath id="clip0_23_146">
<rect width="70" height="70" fill="white" transform="translate(0 0.5)"/>
</clipPath>
</defs>
</svg>
