<svg width="70" height="70" viewBox="0 0 70 70" fill="none" xmlns="http://www.w3.org/2000/svg">
<path d="M63.0748 5.61503C63.798 5.61503 64.385 6.20198 64.385 6.92519C64.385 7.6484 63.798 8.23535 63.0748 8.23535C62.3516 8.23535 61.7646 7.6484 61.7646 6.92519C61.7646 6.20198 62.3516 5.61503 63.0748 5.61503Z" fill="#52C923"/>
<path fill-rule="evenodd" clip-rule="evenodd" d="M63.0748 7.97333C62.4956 7.97333 62.0267 7.50443 62.0267 6.92519C62.0267 6.34595 62.4956 5.87706 63.0748 5.87706C63.6541 5.87706 64.1229 6.34595 64.1229 6.92519C64.1229 7.50443 63.6541 7.97333 63.0748 7.97333ZM64.385 6.92519C64.385 6.20198 63.798 5.61503 63.0748 5.61503C62.3516 5.61503 61.7646 6.20198 61.7646 6.92519C61.7646 7.6484 62.3516 8.23535 63.0748 8.23535C63.798 8.23535 64.385 7.6484 64.385 6.92519Z" fill="#52C923"/>
<path d="M63.0748 61.7647C63.798 61.7647 64.385 62.3516 64.385 63.0748C64.385 63.7981 63.798 64.385 63.0748 64.385C62.3516 64.385 61.7646 63.7981 61.7646 63.0748C61.7646 62.3516 62.3516 61.7647 63.0748 61.7647Z" fill="#52C923"/>
<path fill-rule="evenodd" clip-rule="evenodd" d="M63.0748 64.123C62.4956 64.123 62.0267 63.6541 62.0267 63.0748C62.0267 62.4956 62.4956 62.0267 63.0748 62.0267C63.6541 62.0267 64.1229 62.4956 64.1229 63.0748C64.1229 63.6541 63.6541 64.123 63.0748 64.123ZM64.385 63.0748C64.385 62.3516 63.798 61.7647 63.0748 61.7647C62.3516 61.7647 61.7646 62.3516 61.7646 63.0748C61.7646 63.7981 62.3516 64.385 63.0748 64.385C63.798 64.385 64.385 63.7981 64.385 63.0748Z" fill="#52C923"/>
<path d="M6.92515 5.61503C7.64836 5.61503 8.23531 6.20198 8.23531 6.92519C8.23531 7.6484 7.64836 8.23535 6.92515 8.23535C6.20194 8.23535 5.61499 7.6484 5.61499 6.92519C5.61499 6.20198 6.20194 5.61503 6.92515 5.61503Z" fill="#52C923"/>
<path fill-rule="evenodd" clip-rule="evenodd" d="M6.92515 7.97333C6.34591 7.97333 5.87702 7.50443 5.87702 6.92519C5.87702 6.34595 6.34591 5.87706 6.92515 5.87706C7.50439 5.87706 7.97329 6.34595 7.97329 6.92519C7.97329 7.50443 7.50439 7.97333 6.92515 7.97333ZM8.23531 6.92519C8.23531 6.20198 7.64836 5.61503 6.92515 5.61503C6.20194 5.61503 5.61499 6.20198 5.61499 6.92519C5.61499 7.6484 6.20194 8.23535 6.92515 8.23535C7.64836 8.23535 8.23531 7.6484 8.23531 6.92519Z" fill="#52C923"/>
<path d="M6.92515 61.7647C7.64836 61.7647 8.23531 62.3516 8.23531 63.0748C8.23531 63.7981 7.64836 64.385 6.92515 64.385C6.20194 64.385 5.61499 63.7981 5.61499 63.0748C5.61499 62.3516 6.20194 61.7647 6.92515 61.7647Z" fill="#52C923"/>
<path fill-rule="evenodd" clip-rule="evenodd" d="M6.92515 64.123C6.34591 64.123 5.87702 63.6541 5.87702 63.0748C5.87702 62.4956 6.34591 62.0267 6.92515 62.0267C7.50439 62.0267 7.97329 62.4956 7.97329 63.0748C7.97329 63.6541 7.50439 64.123 6.92515 64.123ZM8.23531 63.0748C8.23531 62.3516 7.64836 61.7647 6.92515 61.7647C6.20194 61.7647 5.61499 62.3516 5.61499 63.0748C5.61499 63.7981 6.20194 64.385 6.92515 64.385C7.64836 64.385 8.23531 63.7981 8.23531 63.0748Z" fill="#52C923"/>
<path d="M7.70644 33.6899H7.67369C6.95048 33.6899 6.36353 34.2768 6.36353 35C6.36353 35.7232 6.95048 36.3102 7.67369 36.3102H7.70644C8.41524 36.2918 8.98385 35.7127 8.98385 35C8.98385 34.2873 8.41524 33.7082 7.70644 33.6899Z" fill="#52C923"/>
<path fill-rule="evenodd" clip-rule="evenodd" d="M0 63.2745C0 66.9887 3.0113 70 6.72549 70H63.2745C66.9887 70 70 66.9887 70 63.2745V6.72549C70 3.0113 66.9887 0 63.2745 0H6.72549C3.0113 0 0 3.0113 0 6.72549V63.2745ZM6.72549 67.5294C4.37577 67.5294 2.4706 65.6242 2.4706 63.2745V6.72549C2.4706 4.37577 4.37577 2.4706 6.72549 2.4706H63.2745C65.6242 2.4706 67.5294 4.37577 67.5294 6.72549V63.2745C67.5294 65.6242 65.6242 67.5294 63.2745 67.5294H6.72549Z" fill="#52C923"/>
<path fill-rule="evenodd" clip-rule="evenodd" d="M28.4622 35.4083C28.6735 38.8354 31.5192 41.5508 35 41.5508C35.1409 41.5508 35.2765 41.5457 35.4066 41.5379L35.4083 41.5378C38.8355 41.3265 41.5508 38.4808 41.5508 35C41.5508 34.8591 41.5458 34.7235 41.538 34.5934L41.5378 34.5917C41.3265 31.1645 38.4808 28.4492 35 28.4492C34.8591 28.4492 34.7236 28.4542 34.5934 28.462L34.5917 28.4622C31.1646 28.6735 28.4492 31.5192 28.4492 35C28.4492 35.1409 28.4543 35.2764 28.4621 35.4066L28.4622 35.4083ZM30.8641 35.261C30.8586 35.1695 30.8556 35.0834 30.8556 35C30.8556 32.7993 32.5729 30.9982 34.7388 30.8641C34.8304 30.8586 34.9166 30.8556 35 30.8556C37.2007 30.8556 39.0018 32.5729 39.1359 34.7388C39.1414 34.8304 39.1444 34.9165 39.1444 35C39.1444 37.2007 37.427 39.0019 35.261 39.1359C35.1695 39.1414 35.0834 39.1444 35 39.1444C32.7993 39.1444 30.9981 37.427 30.8641 35.261ZM35.3343 40.3371L35.3343 40.3371L35.3343 40.3371Z" fill="#52C923"/>
<path fill-rule="evenodd" clip-rule="evenodd" d="M7.13983 40.7128C9.98641 54.0455 21.2709 63.6364 35.1042 63.6364C50.8462 63.6364 63.6364 50.9248 63.6364 35C63.6364 19.1841 50.8625 6.36363 35.1042 6.36363C21.1068 6.36363 9.78093 16.3168 7.13744 29.2985C7.00157 29.9657 7.43037 30.6172 8.0952 30.7536C8.76003 30.8899 9.40913 30.4596 9.545 29.7923C11.9636 17.9151 22.3181 8.82993 35.1042 8.82993C49.5053 8.82993 61.179 20.5462 61.179 35C61.179 49.5558 49.496 61.1701 35.1042 61.1701C22.4719 61.1701 12.1554 52.4336 9.54261 40.1961C9.40043 39.5302 8.74729 39.106 8.08378 39.2487C7.42027 39.3914 6.99765 40.0469 7.13983 40.7128Z" fill="#52C923"/>
<path fill-rule="evenodd" clip-rule="evenodd" d="M34.1029 40.6676C35.4469 45.9108 40.2062 49.7861 45.8723 49.7861C52.5817 49.7861 58.0214 44.3503 58.0214 37.6457V34.9176C58.0214 34.2395 57.4714 33.6899 56.7929 33.6899H40.4121C39.7336 33.6899 39.1835 34.2395 39.1835 34.9176C39.1835 35.5956 39.7336 36.1452 40.4121 36.1452H55.5643V37.6457C55.5643 42.9943 51.2247 47.3308 45.8723 47.3308C41.355 47.3308 37.5554 44.2411 36.4832 40.0584C36.3148 39.4015 35.6455 39.0055 34.9882 39.1737C34.3309 39.342 33.9346 40.0108 34.1029 40.6676Z" fill="#52C923"/>
<path fill-rule="evenodd" clip-rule="evenodd" d="M20.2139 45.8723C20.2139 52.5816 25.6497 58.0214 32.3543 58.0214H35.0824C35.7605 58.0214 36.3101 57.4713 36.3101 56.7928V40.412C36.3101 39.7335 35.7605 39.1834 35.0824 39.1834C34.4044 39.1834 33.8548 39.7335 33.8548 40.412V55.5642H32.3543C27.0057 55.5642 22.6692 51.2246 22.6692 45.8723C22.6692 41.355 25.7589 37.5553 29.9416 36.4831C30.5985 36.3148 30.9945 35.6454 30.8263 34.9881C30.658 34.3309 29.9892 33.9345 29.3324 34.1029C24.0892 35.4469 20.2139 40.2062 20.2139 45.8723Z" fill="#52C923"/>
<path fill-rule="evenodd" clip-rule="evenodd" d="M11.9785 35.0825C11.9785 35.7605 12.5286 36.3102 13.2071 36.3102H29.5879C30.2664 36.3102 30.8164 35.7605 30.8164 35.0825C30.8164 34.4045 30.2664 33.8548 29.5879 33.8548H14.4356V32.3543C14.4356 27.0058 18.7753 22.6693 24.1276 22.6693C28.6449 22.6693 32.4446 25.759 33.5167 29.9417C33.6851 30.5985 34.3544 30.9946 35.0117 30.8263C35.669 30.6581 36.0654 29.9892 35.897 29.3324C34.553 24.0893 29.7937 20.2139 24.1276 20.2139C17.4182 20.2139 11.9785 25.6497 11.9785 32.3543V35.0825Z" fill="#52C923"/>
<path fill-rule="evenodd" clip-rule="evenodd" d="M39.1738 35.0118C39.342 35.6691 40.0109 36.0654 40.6677 35.8971C45.9108 34.5531 49.7862 29.7938 49.7862 24.1277C49.7862 17.4183 44.3504 11.9786 37.6458 11.9786H34.9176C34.2396 11.9786 33.6899 12.5286 33.6899 13.2071V29.5879C33.6899 30.2664 34.2396 30.8165 34.9176 30.8165C35.5957 30.8165 36.1453 30.2664 36.1453 29.5879V14.4357H37.6458C42.9943 14.4357 47.3308 18.7753 47.3308 24.1277C47.3308 28.645 44.2412 32.4446 40.0584 33.5168C39.4016 33.6852 39.0055 34.3545 39.1738 35.0118Z" fill="#52C923"/>
</svg>
